<mxfile host="app.diagrams.net" modified="2023-06-06T14:51:31.902Z" agent="Mozilla/5.0 (X11; Linux x86_64) AppleWebKit/537.36 (KHTML, like Gecko) Chrome/114.0.0.0 Safari/537.36" version="21.3.7" etag="_NVFHw_AytXo0t_8wOiC" type="github">
  <diagram name="Page-1" id="9zmHP9vvlCBIY_SYzg8y">
    <mxGraphModel>
      <root>
        <mxCell id="0" />
        <mxCell id="1" parent="0" />
      </root>
    </mxGraphModel>
  </diagram>
</mxfile>
